<?xml version="1.0" encoding="UTF-8"?>
<svg id="Calque_1" data-name="Calque 1" xmlns="http://www.w3.org/2000/svg" viewBox="0 0 512 512">
  <defs>
    <style>
      .cls-1 {
        fill: #fff;
      }

      .cls-2 {
        fill: #b23627;
      }

      .cls-3 {
        fill: #4a4d4a;
      }
    </style>
  </defs>
  <rect class="cls-3" x="4.8" y="16.8" width="502.41" height="478.4" rx="30" ry="30"/>
  <g>
    <path class="cls-1" d="m393.93,393.59c-.13,14.2-9.78,23.85-23.98,23.85h-228.29c-13.53,0-23.45-9.65-23.45-23.18-.13-19.29,0-38.58,0-57.88s0-39.12-.13-58.82c0-2.81.8-4.96,2.95-6.97,43.41-41.4,86.82-82.93,130.22-124.33,3.48-3.22,6.16-3.22,9.65.13,43.41,41.4,86.82,82.93,130.22,124.46,1.47,1.47,2.68,4.29,2.68,6.56.13,38.72.13,77.44.13,116.16Z"/>
    <path class="cls-1" d="m313.49,140.47c0-7.8-.01-14.69,0-21.57.02-8.11,4.55-12.65,12.63-12.66,10.41-.01,20.83.4,31.21-.13,7.8-.4,13.92,4.85,13.77,13.91-.39,24.03-.09,48.07-.19,72.1,0,2.5.75,4.18,2.54,5.88,16.91,16.06,33.78,32.16,50.58,48.33,7.23,6.96,5.08,17.72-3.98,20.27-4.69,1.32-8.57-.25-12.04-3.59-20.36-19.54-40.8-39-61.2-58.5-28.27-27.01-56.54-54.03-84.82-81.04-4.89-4.67-6.91-4.69-11.73-.09-48.51,46.33-97.02,92.67-145.52,139.02-2.56,2.44-5.19,4.52-8.98,4.62-4.93.12-8.62-1.93-10.8-6.26-2.25-4.47-1.57-8.81,1.55-12.71.74-.93,1.62-1.75,2.49-2.58,50.2-48.03,100.4-96.06,150.6-144.09,9.39-8.98,23.22-9.14,32.64-.25,13.56,12.81,27,25.74,41.25,39.33Z"/>
  </g>
  <g>
    <path class="cls-2" d="m304.6,256.9c6.92-7.05,5.07-16.28.86-20.89-4.48-4.94-13.51-8.04-22.41-.4-2.17-3.89-5.27-6.85-9.69-8.04-3.36-.86-6.79-.86-10.02.66-3.95,1.91-6.72,4.94-8.11,9.09-1.38,4.15-.86,8.11.99,12.19-4.94.86-8.63,3.3-11.14,7.38-1.71,2.77-2.31,5.8-1.98,8.96.86,7.78,5.54,12.13,15.09,13.71-5.54,7.97-8.3,16.8-9.36,26.69-1.12-1.65-2.04-2.97-2.9-4.28-1.32-2.04-2.7-3.95-3.95-6-.53-.92-.92-1.98-.86-2.97.07-4.55-.13-9.03-1.78-13.31-2.64-6.85-7.97-10.35-14.89-11.4-3.56-.59-7.25-.4-10.87-.4-.66,0-1.71.72-1.91,1.32-1.78,5.6.07,19.18,6.66,23.86,3.82,2.7,8.04,4.15,12.72,4.42,2.04.13,4.09.07,6.13.13.53,0,1.19.2,1.38.59,3.03,4.55,5.87,9.29,8.83,13.9h5.34c-.13-10.41,2.24-19.9,7.78-29.13,2.11,9.82,7.71,15.09,17.46,13.97,7.25-.79,11.27-5.73,12.85-12.85,8.7,3.36,16.21,1.98,20.63-6.52,4.42-8.7.79-15.62-6.85-20.69Zm-25.7,15.16c-5.6,0-10.41-4.88-10.48-10.61-.07-6.13,4.61-11.14,10.54-11.2,6.26,0,10.87,4.75,10.94,11.14.07,5.73-5.01,10.68-11.01,10.68Z"/>
    <rect class="cls-2" x="198.63" y="312.12" width="100.64" height="23.66" rx=".33" ry=".33"/>
    <path class="cls-2" d="m277.75,406.8h-57.75c-1.55,0-2.88-1.09-3.18-2.61l-12.89-63.81h89.94l-12.93,63.81c-.31,1.51-1.64,2.6-3.18,2.6Z"/>
  </g>
</svg>