<?xml version="1.0" encoding="UTF-8"?>
<svg id="Calque_1" data-name="Calque 1" xmlns="http://www.w3.org/2000/svg" viewBox="0 0 372 100">
  <defs>
    <style>
      .cls-1 {
        fill: #fff;
      }

      .cls-2 {
        fill: none;
        stroke: #fff;
        stroke-miterlimit: 10;
        stroke-width: 2px;
      }

      .cls-3 {
        fill: #a0c171;
      }
    </style>
  </defs>
  <g>
    <g>
      <path class="cls-1" d="m157.9,47.33l7.08-1.5c.59,2.36,2.12,3.54,4.59,3.54,1.92,0,2.88-.6,2.88-1.8,0-.63-.22-1.12-.66-1.47-.44-.35-1.24-.66-2.38-.93-4.36-.98-7.16-2.27-8.39-3.86-1.24-1.59-1.86-3.46-1.86-5.6,0-2.76.89-5.06,2.67-6.89,1.78-1.83,4.34-2.75,7.68-2.75,5.06,0,8.41,2.4,10.03,7.19l-6.32,2.25c-.66-1.96-1.99-2.94-3.99-2.94-1.66,0-2.49.61-2.49,1.82,0,.54.19.97.56,1.27s1.1.59,2.19.86c2.97.74,5.09,1.4,6.34,1.97,1.25.57,2.29,1.55,3.13,2.93.84,1.38,1.26,3.01,1.26,4.89,0,2.96-1.02,5.37-3.06,7.21-2.04,1.84-4.72,2.76-8.03,2.76-6.06,0-9.8-2.98-11.22-8.93Z"/>
      <path class="cls-1" d="m190.75,26.51v29.3h-7.63v-29.3h7.63Z"/>
      <path class="cls-1" d="m212.51,48.62v7.19h-17.43v-29.3h7.63v22.11h9.8Z"/>
      <path class="cls-1" d="m234.52,26.51l-7.71,29.3h-7.78l-8.07-29.3h8.04l3.93,15.97c.27.94.51,1.87.71,2.79l4.59-18.76h6.27Z"/>
      <path class="cls-1" d="m249.2,55.81l-1.41-5.77h-6.66l-1.49,5.77h-6.19l7.67-29.3h8.07l7.8,29.3h-7.79Zm-6.77-12.17h4.02l-2.01-8.5-2.01,8.5Z"/>
    </g>
    <g>
      <path class="cls-1" d="m102.49,55.81v-29.3h9.62c4.18,0,7.3,1.46,9.38,4.38,2.08,2.92,3.11,6.3,3.11,10.13,0,4.38-1.11,7.94-3.34,10.68-2.23,2.74-5.12,4.11-8.68,4.11h-10.09Zm7.63-6.74h1.98c1.26,0,2.33-.72,3.2-2.17s1.3-3.41,1.3-5.9c0-2.13-.39-3.97-1.16-5.52s-1.88-2.32-3.34-2.32h-1.98v15.91Z"/>
      <path class="cls-1" d="m140.71,55.81l-1.4-5.77h-6.66l-1.49,5.77h-6.19l7.67-29.3h8.07l7.8,29.3h-7.79Zm-6.77-12.17h4.02l-2.01-8.5-2.01,8.5Z"/>
    </g>
    <g>
      <path class="cls-1" d="m287.6,48.62v7.19h-17.43v-29.3h7.63v22.11h9.8Z"/>
      <path class="cls-1" d="m308.96,48.81v7h-18.7v-29.3h18.7v6.76h-11.22v4.25h9.07v6.5h-9.07v4.79h11.22Z"/>
      <path class="cls-1" d="m319.61,26.51v29.3h-7.63v-29.3h7.63Z"/>
      <path class="cls-1" d="m334.16,33.53v22.28h-7.23v-22.28h-5.15v-7.02h17.54v7.02h-5.15Z"/>
      <path class="cls-1" d="m360.19,48.81v7h-18.7v-29.3h18.7v6.76h-11.22v4.25h9.07v6.5h-9.07v4.79h11.22Z"/>
    </g>
  </g>
  <g>
    <path class="cls-3" d="m104.54,67.04v3.15h4.35v1.44h-4.35v3.29h4.9v1.44h-6.97v-10.75h6.97v1.44h-4.9Z"/>
    <path class="cls-3" d="m124.4,76.36h-2.07l-6.22-8.02v8.02h-2.07v-10.75h2.07l6.22,8v-8h2.07v10.75Z"/>
    <path class="cls-3" d="m137.33,65.62v1.44h-3.36v9.3h-2.07v-9.3h-3.37v-1.44h8.8Z"/>
    <path class="cls-3" d="m148.04,76.36l-2.9-4.29h-1.58v4.29h-2.07v-10.73h4.35c.97,0,1.79.14,2.46.43.67.29,1.17.67,1.51,1.16.33.48.5,1.02.5,1.62,0,.7-.24,1.34-.72,1.91-.48.57-1.21.96-2.2,1.17l3.12,4.45h-2.47Zm-4.48-5.7h2.29c.77,0,1.36-.16,1.75-.49.39-.33.59-.77.59-1.33s-.19-.99-.58-1.31c-.39-.31-.97-.47-1.76-.47h-2.29v3.6Z"/>
    <path class="cls-3" d="m157.09,67.04v3.15h4.35v1.44h-4.35v3.29h4.9v1.44h-6.97v-10.75h6.97v1.44h-4.9Z"/>
    <path class="cls-3" d="m174.95,70.37c-.3.48-.79.88-1.45,1.18s-1.52.46-2.56.46h-2.29v4.36h-2.07v-10.73h4.35c.97,0,1.79.14,2.46.42s1.17.67,1.51,1.15c.33.48.5,1.02.5,1.62,0,.55-.15,1.06-.45,1.54Zm-2.25-.25c.39-.3.58-.73.58-1.29,0-1.17-.78-1.76-2.34-1.76h-2.29v3.51h2.29c.79,0,1.37-.15,1.76-.46Z"/>
    <path class="cls-3" d="m186,76.36l-2.9-4.29h-1.58v4.29h-2.07v-10.73h4.35c.97,0,1.79.14,2.46.43.67.29,1.17.67,1.51,1.16.33.48.5,1.02.5,1.62,0,.7-.24,1.34-.72,1.91-.48.57-1.21.96-2.2,1.17l3.12,4.45h-2.47Zm-4.48-5.7h2.29c.77,0,1.36-.16,1.75-.49.39-.33.59-.77.59-1.33s-.19-.99-.58-1.31c-.39-.31-.97-.47-1.76-.47h-2.29v3.6Z"/>
    <path class="cls-3" d="m195.05,65.62v10.73h-2.07v-10.73h2.07Z"/>
    <path class="cls-3" d="m201.71,76.09c-.68-.25-1.21-.61-1.6-1.07-.39-.46-.58-1-.58-1.62h2.21c.05.46.26.84.64,1.14.38.3.92.45,1.61.45s1.27-.15,1.67-.44c.4-.29.6-.67.6-1.14,0-.36-.12-.65-.37-.88s-.56-.4-.92-.53c-.37-.12-.88-.26-1.53-.4-.82-.19-1.49-.37-2-.56-.51-.19-.95-.49-1.31-.89-.36-.4-.54-.94-.54-1.61,0-.62.18-1.16.54-1.62.36-.46.87-.82,1.52-1.07s1.41-.37,2.27-.37c1.22,0,2.22.26,3,.78s1.21,1.23,1.3,2.14h-2.29c-.04-.39-.25-.73-.65-1-.4-.28-.92-.42-1.58-.42-.59,0-1.08.13-1.45.39-.38.26-.56.63-.56,1.11,0,.33.12.6.35.81.24.21.54.38.9.5.36.12.86.26,1.49.4.83.2,1.51.39,2.04.59.53.2.97.5,1.34.9s.55.95.55,1.63c0,.55-.17,1.06-.52,1.54-.34.48-.85.87-1.5,1.17s-1.44.44-2.33.44c-.85,0-1.61-.13-2.29-.38Z"/>
    <path class="cls-3" d="m214.93,67.04v3.15h4.35v1.44h-4.35v3.29h4.9v1.44h-6.97v-10.75h6.97v1.44h-4.9Z"/>
    <path class="cls-3" d="m238.87,66.28c1.01.44,1.79,1.07,2.34,1.88.55.82.83,1.77.83,2.87s-.28,2.04-.83,2.84c-.55.8-1.33,1.42-2.34,1.85-1.01.43-2.19.64-3.53.64h-4.12v-10.73h4.12c1.34,0,2.52.22,3.53.66Zm-.14,7.62c.79-.68,1.18-1.64,1.18-2.87s-.39-2.22-1.18-2.92-1.92-1.05-3.39-1.05h-2.05v7.86h2.05c1.47,0,2.61-.34,3.39-1.02Z"/>
    <path class="cls-3" d="m248.22,67.04v3.15h4.35v1.44h-4.35v3.29h4.9v1.44h-6.97v-10.75h6.97v1.44h-4.9Z"/>
    <path class="cls-3" d="m272.87,70.37c-.3.48-.79.88-1.45,1.18s-1.52.46-2.56.46h-2.29v4.36h-2.07v-10.73h4.35c.97,0,1.79.14,2.46.42s1.17.67,1.51,1.15c.33.48.5,1.02.5,1.62,0,.55-.15,1.06-.45,1.54Zm-2.25-.25c.39-.3.58-.73.58-1.29,0-1.17-.78-1.76-2.34-1.76h-2.29v3.51h2.29c.79,0,1.37-.15,1.76-.46Z"/>
    <path class="cls-3" d="m279.44,67.04v3.15h4.35v1.44h-4.35v3.29h4.9v1.44h-6.97v-10.75h6.97v1.44h-4.9Z"/>
    <path class="cls-3" d="m291.01,65.62v10.73h-2.07v-10.73h2.07Z"/>
    <path class="cls-3" d="m306.16,76.36h-2.07l-6.22-8.02v8.02h-2.07v-10.75h2.07l6.22,8v-8h2.07v10.75Z"/>
    <path class="cls-3" d="m319.09,65.62v1.44h-3.36v9.3h-2.07v-9.3h-3.37v-1.44h8.8Z"/>
    <path class="cls-3" d="m325.29,65.62v6.84c0,.81.25,1.43.75,1.84s1.2.62,2.09.62,1.61-.21,2.11-.62.75-1.02.75-1.84v-6.84h2.07v6.81c0,.88-.22,1.62-.67,2.22-.45.61-1.05,1.06-1.8,1.36-.75.3-1.58.45-2.49.45s-1.73-.15-2.48-.45c-.74-.3-1.33-.75-1.77-1.36-.44-.61-.65-1.35-.65-2.22v-6.81h2.07Z"/>
    <path class="cls-3" d="m344.38,76.36l-2.9-4.29h-1.58v4.29h-2.07v-10.73h4.35c.97,0,1.79.14,2.46.43.67.29,1.17.67,1.51,1.16.33.48.5,1.02.5,1.62,0,.7-.24,1.34-.72,1.91-.48.57-1.21.96-2.2,1.17l3.12,4.45h-2.47Zm-4.48-5.7h2.29c.77,0,1.36-.16,1.75-.49.39-.33.59-.77.59-1.33s-.19-.99-.58-1.31c-.39-.31-.97-.47-1.76-.47h-2.29v3.6Z"/>
    <path class="cls-3" d="m353.43,67.04v3.15h4.35v1.44h-4.35v3.29h4.9v1.44h-6.97v-10.75h6.97v1.44h-4.9Z"/>
  </g>
  <line class="cls-2" x1="83.5" y1="16.03" x2="83.5" y2="83.2"/>
  <g>
    <path class="cls-3" d="m20.18,58.71h-8.39V25.27c8.74-7.21,17.48-14.43,26.23-21.64,8.39,7.21,16.78,14.43,25.18,21.64v21.64h-8.45v-18.63c-5.56-4.59-11.11-9.18-16.67-13.77-5.94,4.59-11.89,9.18-17.83,13.77-.02,10.14-.04,20.29-.06,30.43Z"/>
    <rect class="cls-3" x="24.38" y="51.82" width="38.82" height="6.88"/>
    <rect class="cls-3" x="30.68" y="31.17" width="6.29" height="5.9"/>
    <rect class="cls-3" x="39.07" y="31.17" width="6.29" height="5.9"/>
    <rect class="cls-3" x="39.07" y="39.04" width="6.29" height="5.9"/>
    <rect class="cls-3" x="30.68" y="39.04" width="6.29" height="5.9"/>
  </g>
  <path class="cls-1" d="m13.14,62.16c0,2.03.01,4.06.02,6.09l.04.13c.32.49.85,1.17,1.68,1.75,1.21.86,2.42,1.08,3.48,1.27,0,0,3.82.7,7.34,1.45,3.67.78,4.52,1.29,5.02,1.63.62.43,2.09,1.46,2.71,3.26.49,1.44.19,2.65-.39,4.89-.75,2.89-1.3,2.76-1.55,4.53-.09.67-.53,3.73,1.55,6.16.42.49,1.53,1.8,3.48,2.17,2.14.41,3.84-.56,4.45-.91.24-.14,2.7-1.59,3.29-4.35.26-1.23.21-2.3-.35-4.5-.64-2.49-1.25-2.54-1.58-4.38-.29-1.64-.57-3.36.39-5.07.7-1.25,1.74-1.93,2.13-2.17.94-.6,1.57-.66,4.66-1.27,1.74-.34,3.48-.73,5.22-1.09,1.24-.25,2.44-.62,3.67-.91,1.31-.3,2.24-.5,2.88-1.27.09-.11.17-.23.24-.34.23-.39.34-.82.34-1.27v-5.82H13.14Zm25.03,29.81c-1.73.31-3.22-1.09-2.9-2.71.18-.9.97-1.64,1.93-1.81,1.73-.31,3.22,1.09,2.9,2.71-.18.9-.97,1.64-1.93,1.81Z"/>
</svg>