<?xml version="1.0" encoding="UTF-8"?>
<svg id="Calque_1" data-name="Calque 1" xmlns="http://www.w3.org/2000/svg" viewBox="0 0 372 100">
  <defs>
    <style>
      .cls-1 {
        fill: #fff;
      }

      .cls-2, .cls-3 {
        stroke: #a0c171;
        stroke-miterlimit: 10;
        stroke-width: 2px;
      }

      .cls-2, .cls-4 {
        fill: #a0c171;
      }

      .cls-3 {
        fill: #809652;
      }
    </style>
  </defs>
  <g>
    <g>
      <path class="cls-1" d="m135.59,47.57l7.88-1.83c.66,2.88,2.36,4.31,5.1,4.31,2.13,0,3.2-.73,3.2-2.2,0-.77-.25-1.36-.74-1.79-.49-.43-1.37-.81-2.64-1.14-4.85-1.2-7.96-2.77-9.33-4.7-1.38-1.94-2.06-4.21-2.06-6.83,0-3.36.99-6.16,2.97-8.39,1.98-2.23,4.82-3.35,8.53-3.35,5.63,0,9.35,2.92,11.16,8.76l-7.03,2.75c-.73-2.39-2.21-3.58-4.43-3.58-1.85,0-2.77.74-2.77,2.22,0,.66.21,1.18.63,1.54s1.23.71,2.43,1.04c3.31.9,5.66,1.7,7.05,2.4,1.39.7,2.55,1.88,3.48,3.57.93,1.68,1.4,3.67,1.4,5.95,0,3.61-1.13,6.54-3.4,8.78-2.27,2.24-5.24,3.36-8.93,3.36-6.74,0-10.89-3.63-12.47-10.88Z"/>
      <path class="cls-1" d="m172.11,22.21v35.69h-8.48V22.21h8.48Z"/>
      <path class="cls-1" d="m196.31,49.14v8.76h-19.38V22.21h8.48v26.93h10.89Z"/>
      <path class="cls-1" d="m220.77,22.21l-8.58,35.69h-8.64l-8.97-35.69h8.94l4.37,19.45c.3,1.15.56,2.28.79,3.4l5.11-22.85h6.97Z"/>
      <path class="cls-1" d="m237.1,57.9l-1.56-7.03h-7.4l-1.66,7.03h-6.89l8.53-35.69h8.97l8.67,35.69h-8.66Zm-7.52-14.82h4.47l-2.24-10.35-2.24,10.35Z"/>
    </g>
    <g>
      <path class="cls-1" d="m73.99,57.9V22.21h10.69c4.64,0,8.12,1.78,10.43,5.33,2.31,3.56,3.46,7.67,3.46,12.34,0,5.33-1.24,9.67-3.71,13.01-2.48,3.34-5.69,5.01-9.65,5.01h-11.22Zm8.48-8.21h2.21c1.4,0,2.59-.88,3.55-2.64s1.45-4.16,1.45-7.19c0-2.6-.43-4.84-1.29-6.72s-2.1-2.82-3.71-2.82h-2.21v19.37Z"/>
      <path class="cls-1" d="m116.48,57.9l-1.56-7.03h-7.4l-1.66,7.03h-6.89l8.53-35.69h8.97l8.67,35.69h-8.66Zm-7.52-14.82h4.47l-2.24-10.35-2.24,10.35Z"/>
    </g>
    <g>
      <path class="cls-1" d="m279.79,49.14v8.76h-19.38V22.21h8.48v26.93h10.89Z"/>
      <path class="cls-1" d="m303.53,49.37v8.52h-20.79V22.21h20.79v8.24h-12.47v5.18h10.08v7.92h-10.08v5.83h12.47Z"/>
      <path class="cls-1" d="m315.38,22.21v35.69h-8.48V22.21h8.48Z"/>
      <path class="cls-1" d="m331.55,30.76v27.14h-8.04v-27.14h-5.73v-8.55h19.5v8.55h-5.73Z"/>
      <path class="cls-1" d="m360.48,49.37v8.52h-20.79V22.21h20.79v8.24h-12.47v5.18h10.08v7.92h-10.08v5.83h12.47Z"/>
    </g>
  </g>
  <g>
    <path class="cls-4" d="m125.02,77.6v2.44h3.17v1.11h-3.17v2.55h3.56v1.11h-5.07v-8.34h5.07v1.11h-3.56Z"/>
    <path class="cls-4" d="m139.47,84.82h-1.5l-4.52-6.22v6.22h-1.5v-8.34h1.5l4.52,6.21v-6.21h1.5v8.34Z"/>
    <path class="cls-4" d="m148.87,76.5v1.11h-2.44v7.21h-1.5v-7.21h-2.45v-1.11h6.4Z"/>
    <path class="cls-4" d="m156.66,84.82l-2.11-3.33h-1.15v3.33h-1.5v-8.33h3.17c.7,0,1.3.11,1.79.34.49.22.85.52,1.1.9.24.38.36.79.36,1.26,0,.54-.17,1.04-.52,1.48-.35.44-.88.74-1.6.9l2.27,3.45h-1.79Zm-3.26-4.42h1.66c.56,0,.99-.13,1.27-.38.29-.26.43-.6.43-1.03s-.14-.77-.42-1.01-.71-.37-1.28-.37h-1.66v2.79Z"/>
    <path class="cls-4" d="m163.24,77.6v2.44h3.17v1.11h-3.17v2.55h3.56v1.11h-5.07v-8.34h5.07v1.11h-3.56Z"/>
    <path class="cls-4" d="m176.23,80.18c-.22.38-.57.68-1.05.92-.48.24-1.1.35-1.86.35h-1.66v3.38h-1.5v-8.33h3.17c.7,0,1.3.11,1.79.33.49.22.85.52,1.1.89.24.38.36.79.36,1.26,0,.42-.11.82-.33,1.2Zm-1.64-.2c.28-.24.42-.57.42-1,0-.91-.57-1.37-1.7-1.37h-1.66v2.72h1.66c.57,0,1-.12,1.28-.35Z"/>
    <path class="cls-4" d="m184.26,84.82l-2.11-3.33h-1.15v3.33h-1.5v-8.33h3.17c.7,0,1.3.11,1.79.34.49.22.85.52,1.1.9.24.38.36.79.36,1.26,0,.54-.17,1.04-.52,1.48-.35.44-.88.74-1.6.9l2.27,3.45h-1.79Zm-3.26-4.42h1.66c.56,0,.99-.13,1.27-.38.29-.26.43-.6.43-1.03s-.14-.77-.42-1.01-.71-.37-1.28-.37h-1.66v2.79Z"/>
    <path class="cls-4" d="m190.85,76.5v8.33h-1.5v-8.33h1.5Z"/>
    <path class="cls-4" d="m195.69,84.61c-.49-.2-.88-.47-1.16-.83-.28-.36-.42-.78-.42-1.26h1.61c.04.36.19.65.47.89.28.23.67.35,1.17.35s.92-.11,1.21-.34.44-.52.44-.88c0-.28-.09-.51-.27-.68-.18-.18-.4-.31-.67-.41-.27-.1-.64-.2-1.11-.31-.6-.14-1.08-.29-1.46-.44-.37-.15-.69-.38-.96-.69s-.4-.73-.4-1.25c0-.48.13-.9.4-1.26s.63-.63,1.11-.83c.48-.19,1.02-.29,1.65-.29.89,0,1.62.2,2.18.6.57.4.88.96.94,1.66h-1.66c-.03-.3-.18-.56-.47-.78-.29-.22-.67-.32-1.15-.32-.43,0-.78.1-1.06.3s-.41.49-.41.86c0,.26.09.47.26.63.17.16.39.29.65.39.26.1.62.2,1.08.31.61.15,1.1.3,1.48.46.38.15.71.39.98.7.27.32.4.74.4,1.26,0,.42-.12.82-.38,1.2-.25.38-.62.68-1.09.9-.48.23-1.04.34-1.7.34-.62,0-1.17-.1-1.66-.29Z"/>
    <path class="cls-4" d="m205.31,77.6v2.44h3.17v1.11h-3.17v2.55h3.56v1.11h-5.07v-8.34h5.07v1.11h-3.56Z"/>
    <path class="cls-4" d="m222.71,77.01c.73.34,1.3.83,1.7,1.46.4.64.6,1.38.6,2.22s-.2,1.58-.6,2.2c-.4.62-.97,1.1-1.7,1.43s-1.59.5-2.57.5h-2.99v-8.33h2.99c.98,0,1.83.17,2.57.51Zm-.1,5.91c.57-.53.86-1.27.86-2.23s-.29-1.72-.86-2.26c-.57-.54-1.39-.81-2.47-.81h-1.49v6.1h1.49c1.07,0,1.9-.26,2.47-.79Z"/>
    <path class="cls-4" d="m229.51,77.6v2.44h3.17v1.11h-3.17v2.55h3.56v1.11h-5.07v-8.34h5.07v1.11h-3.56Z"/>
    <path class="cls-4" d="m247.44,80.18c-.22.38-.57.68-1.05.92-.48.24-1.1.35-1.86.35h-1.66v3.38h-1.5v-8.33h3.17c.7,0,1.3.11,1.79.33.49.22.85.52,1.1.89.24.38.36.79.36,1.26,0,.42-.11.82-.33,1.2Zm-1.64-.2c.28-.24.42-.57.42-1,0-.91-.57-1.37-1.7-1.37h-1.66v2.72h1.66c.57,0,1-.12,1.28-.35Z"/>
    <path class="cls-4" d="m252.21,77.6v2.44h3.17v1.11h-3.17v2.55h3.56v1.11h-5.07v-8.34h5.07v1.11h-3.56Z"/>
    <path class="cls-4" d="m260.63,76.5v8.33h-1.5v-8.33h1.5Z"/>
    <path class="cls-4" d="m271.64,84.82h-1.5l-4.52-6.22v6.22h-1.5v-8.34h1.5l4.52,6.21v-6.21h1.5v8.34Z"/>
    <path class="cls-4" d="m281.05,76.5v1.11h-2.44v7.21h-1.5v-7.21h-2.45v-1.11h6.4Z"/>
    <path class="cls-4" d="m285.56,76.5v5.31c0,.63.18,1.11.55,1.43s.87.48,1.52.48,1.17-.16,1.54-.48.55-.79.55-1.43v-5.31h1.5v5.28c0,.68-.16,1.25-.49,1.73-.33.47-.76.82-1.31,1.05-.54.23-1.15.35-1.81.35s-1.26-.12-1.8-.35c-.54-.23-.97-.58-1.29-1.05s-.47-1.05-.47-1.73v-5.28h1.5Z"/>
    <path class="cls-4" d="m299.44,84.82l-2.11-3.33h-1.15v3.33h-1.5v-8.33h3.17c.7,0,1.3.11,1.79.34.49.22.85.52,1.1.9.24.38.36.79.36,1.26,0,.54-.17,1.04-.52,1.48-.35.44-.88.74-1.6.9l2.27,3.45h-1.79Zm-3.26-4.42h1.66c.56,0,.99-.13,1.27-.38.29-.26.43-.6.43-1.03s-.14-.77-.42-1.01-.71-.37-1.28-.37h-1.66v2.79Z"/>
    <path class="cls-4" d="m306.02,77.6v2.44h3.17v1.11h-3.17v2.55h3.56v1.11h-5.07v-8.34h5.07v1.11h-3.56Z"/>
  </g>
  <line class="cls-3" x1="323.82" y1="80.75" x2="361" y2="80.75"/>
  <line class="cls-2" x1="74.7" y1="80.73" x2="111.88" y2="80.73"/>
  <path class="cls-4" d="m19.09,58.97h-7.87V25.53c8.2-7.21,16.39-14.43,24.59-21.64,7.87,7.21,15.74,14.43,23.6,21.64v21.64h-7.92v-18.63c-5.21-4.59-10.42-9.18-15.63-13.77-5.57,4.59-11.15,9.18-16.72,13.77-.02,10.14-.04,20.29-.05,30.43Z"/>
  <rect class="cls-4" x="23.02" y="52.08" width="36.39" height="6.88"/>
  <rect class="cls-1" x="28.92" y="31.43" width="5.9" height="5.9"/>
  <rect class="cls-1" x="36.79" y="31.43" width="5.9" height="5.9"/>
  <rect class="cls-1" x="36.79" y="39.3" width="5.9" height="5.9"/>
  <rect class="cls-1" x="28.92" y="39.3" width="5.9" height="5.9"/>
  <path class="cls-1" d="m12.49,62.42c0,2.03.01,4.06.02,6.09l.04.13c.3.49.8,1.17,1.57,1.75,1.14.86,2.27,1.08,3.26,1.27,0,0,3.58.7,6.89,1.45,3.44.78,4.24,1.29,4.71,1.63.59.43,1.96,1.46,2.54,3.26.46,1.44.18,2.65-.36,4.89-.7,2.89-1.22,2.76-1.45,4.53-.09.67-.49,3.73,1.45,6.16.39.49,1.43,1.8,3.26,2.17,2,.41,3.6-.56,4.17-.91.23-.14,2.53-1.59,3.08-4.35.25-1.23.19-2.3-.33-4.5-.6-2.49-1.18-2.54-1.48-4.38-.27-1.64-.53-3.36.36-5.07.65-1.25,1.63-1.93,1.99-2.17.88-.6,1.47-.66,4.37-1.27,1.64-.34,3.26-.73,4.89-1.09,1.16-.25,2.29-.62,3.44-.91,1.22-.3,2.1-.5,2.7-1.27.09-.11.16-.23.22-.34.21-.39.32-.82.32-1.27v-5.82H12.49Zm23.46,29.81c-1.62.31-3.02-1.09-2.71-2.71.17-.9.91-1.64,1.81-1.81,1.62-.31,3.02,1.09,2.71,2.71-.17.9-.91,1.64-1.81,1.81Z"/>
</svg>