<?xml version="1.0" encoding="UTF-8"?>
<svg id="Calque_1" data-name="Calque 1" xmlns="http://www.w3.org/2000/svg" viewBox="0 0 372 100">
  <defs>
    <style>
      .cls-1 {
        fill: #fff;
      }

      .cls-2 {
        fill: none;
        stroke: #fff;
        stroke-miterlimit: 10;
        stroke-width: 2px;
      }

      .cls-3, .cls-4 {
        fill: #a0c171;
      }

      .cls-4 {
        font-family: Poppins-Medium, Poppins;
        font-size: 15.45px;
        font-weight: 500;
        letter-spacing: .11em;
      }
    </style>
  </defs>
  <g>
    <g>
      <path class="cls-1" d="m157.9,47.33l7.08-1.5c.59,2.36,2.12,3.54,4.59,3.54,1.92,0,2.88-.6,2.88-1.8,0-.63-.22-1.12-.66-1.47-.44-.35-1.24-.66-2.38-.93-4.36-.98-7.16-2.27-8.39-3.86-1.24-1.59-1.86-3.46-1.86-5.6,0-2.76.89-5.06,2.67-6.89,1.78-1.83,4.34-2.75,7.68-2.75,5.06,0,8.41,2.4,10.03,7.19l-6.32,2.25c-.66-1.96-1.99-2.94-3.99-2.94-1.66,0-2.49.61-2.49,1.82,0,.54.19.97.56,1.27s1.1.59,2.19.86c2.97.74,5.09,1.4,6.34,1.97,1.25.57,2.29,1.55,3.13,2.93.84,1.38,1.26,3.01,1.26,4.89,0,2.96-1.02,5.37-3.06,7.21-2.04,1.84-4.72,2.76-8.03,2.76-6.06,0-9.8-2.98-11.22-8.93Z"/>
      <path class="cls-1" d="m190.75,26.51v29.3h-7.63v-29.3h7.63Z"/>
      <path class="cls-1" d="m212.51,48.62v7.19h-17.43v-29.3h7.63v22.11h9.8Z"/>
      <path class="cls-1" d="m234.52,26.51l-7.71,29.3h-7.78l-8.07-29.3h8.04l3.93,15.97c.27.94.51,1.87.71,2.79l4.59-18.76h6.27Z"/>
      <path class="cls-1" d="m249.2,55.81l-1.41-5.77h-6.66l-1.49,5.77h-6.19l7.67-29.3h8.07l7.8,29.3h-7.79Zm-6.77-12.17h4.02l-2.01-8.5-2.01,8.5Z"/>
    </g>
    <g>
      <path class="cls-1" d="m102.49,55.81v-29.3h9.62c4.18,0,7.3,1.46,9.38,4.38,2.08,2.92,3.11,6.3,3.11,10.13,0,4.38-1.11,7.94-3.34,10.68-2.23,2.74-5.12,4.11-8.68,4.11h-10.09Zm7.63-6.74h1.98c1.26,0,2.33-.72,3.2-2.17s1.3-3.41,1.3-5.9c0-2.13-.39-3.97-1.16-5.52s-1.88-2.32-3.34-2.32h-1.98v15.91Z"/>
      <path class="cls-1" d="m140.71,55.81l-1.4-5.77h-6.66l-1.49,5.77h-6.19l7.67-29.3h8.07l7.8,29.3h-7.79Zm-6.77-12.17h4.02l-2.01-8.5-2.01,8.5Z"/>
    </g>
    <g>
      <path class="cls-1" d="m287.6,48.62v7.19h-17.43v-29.3h7.63v22.11h9.8Z"/>
      <path class="cls-1" d="m308.96,48.81v7h-18.7v-29.3h18.7v6.76h-11.22v4.25h9.07v6.5h-9.07v4.79h11.22Z"/>
      <path class="cls-1" d="m319.61,26.51v29.3h-7.63v-29.3h7.63Z"/>
      <path class="cls-1" d="m334.16,33.53v22.28h-7.23v-22.28h-5.15v-7.02h17.54v7.02h-5.15Z"/>
      <path class="cls-1" d="m360.19,48.81v7h-18.7v-29.3h18.7v6.76h-11.22v4.25h9.07v6.5h-9.07v4.79h11.22Z"/>
    </g>
  </g>
  <text class="cls-4" transform="translate(101.11 76.36) scale(1.17 1)"><tspan x="0" y="0">ENTREPRISE DE PEINTURE</tspan></text>
  <line class="cls-2" x1="83.5" y1="16.03" x2="83.5" y2="83.2"/>
  <g>
    <path class="cls-3" d="m20.18,58.71h-8.39V25.27c8.74-7.21,17.48-14.43,26.23-21.64,8.39,7.21,16.78,14.43,25.18,21.64v21.64h-8.45v-18.63c-5.56-4.59-11.11-9.18-16.67-13.77-5.94,4.59-11.89,9.18-17.83,13.77-.02,10.14-.04,20.29-.06,30.43Z"/>
    <rect class="cls-3" x="24.38" y="51.82" width="38.82" height="6.88"/>
    <rect class="cls-3" x="30.68" y="31.17" width="6.29" height="5.9"/>
    <rect class="cls-3" x="39.07" y="31.17" width="6.29" height="5.9"/>
    <rect class="cls-3" x="39.07" y="39.04" width="6.29" height="5.9"/>
    <rect class="cls-3" x="30.68" y="39.04" width="6.29" height="5.9"/>
  </g>
  <path class="cls-1" d="m13.14,62.16c0,2.03.01,4.06.02,6.09l.04.13c.32.49.85,1.17,1.68,1.75,1.21.86,2.42,1.08,3.48,1.27,0,0,3.82.7,7.34,1.45,3.67.78,4.52,1.29,5.02,1.63.62.43,2.09,1.46,2.71,3.26.49,1.44.19,2.65-.39,4.89-.75,2.89-1.3,2.76-1.55,4.53-.09.67-.53,3.73,1.55,6.16.42.49,1.53,1.8,3.48,2.17,2.14.41,3.84-.56,4.45-.91.24-.14,2.7-1.59,3.29-4.35.26-1.23.21-2.3-.35-4.5-.64-2.49-1.25-2.54-1.58-4.38-.29-1.64-.57-3.36.39-5.07.7-1.25,1.74-1.93,2.13-2.17.94-.6,1.57-.66,4.66-1.27,1.74-.34,3.48-.73,5.22-1.09,1.24-.25,2.44-.62,3.67-.91,1.31-.3,2.24-.5,2.88-1.27.09-.11.17-.23.24-.34.23-.39.34-.82.34-1.27v-5.82H13.14Zm25.03,29.81c-1.73.31-3.22-1.09-2.9-2.71.18-.9.97-1.64,1.93-1.81,1.73-.31,3.22,1.09,2.9,2.71-.18.9-.97,1.64-1.93,1.81Z"/>
</svg>