<?xml version="1.0" encoding="UTF-8"?>
<svg id="Calque_1" data-name="Calque 1" xmlns="http://www.w3.org/2000/svg" viewBox="0 0 372 100">
  <defs>
    <style>
      .cls-1, .cls-2 {
        stroke: #a0c171;
        stroke-miterlimit: 10;
        stroke-width: 2px;
      }

      .cls-1, .cls-3, .cls-4 {
        fill: #a0c171;
      }

      .cls-2 {
        fill: #809652;
      }

      .cls-5 {
        fill: #213a25;
      }

      .cls-4 {
        font-family: Poppins-Medium, Poppins;
        font-size: 11.98px;
        font-weight: 500;
        letter-spacing: .11em;
      }
    </style>
  </defs>
  <g>
    <g>
      <path class="cls-5" d="m135.37,47.71l7.88-1.83c.66,2.88,2.36,4.31,5.1,4.31,2.13,0,3.2-.73,3.2-2.2,0-.77-.25-1.36-.74-1.79-.49-.43-1.37-.81-2.64-1.14-4.85-1.2-7.96-2.77-9.33-4.7-1.38-1.94-2.06-4.21-2.06-6.83,0-3.36.99-6.16,2.97-8.39,1.98-2.23,4.82-3.35,8.53-3.35,5.63,0,9.35,2.92,11.16,8.76l-7.03,2.75c-.73-2.39-2.21-3.58-4.43-3.58-1.85,0-2.77.74-2.77,2.22,0,.66.21,1.18.63,1.54s1.23.71,2.43,1.04c3.31.9,5.66,1.7,7.05,2.4,1.39.7,2.55,1.88,3.48,3.57.93,1.68,1.4,3.67,1.4,5.95,0,3.61-1.13,6.54-3.4,8.78-2.27,2.24-5.24,3.36-8.93,3.36-6.74,0-10.89-3.63-12.47-10.88Z"/>
      <path class="cls-5" d="m171.89,22.35v35.69h-8.48V22.35h8.48Z"/>
      <path class="cls-5" d="m196.09,49.28v8.76h-19.38V22.35h8.48v26.93h10.89Z"/>
      <path class="cls-5" d="m220.55,22.35l-8.58,35.69h-8.64l-8.97-35.69h8.94l4.37,19.45c.3,1.15.56,2.28.79,3.4l5.11-22.85h6.97Z"/>
      <path class="cls-5" d="m236.87,58.04l-1.56-7.03h-7.4l-1.66,7.03h-6.89l8.53-35.69h8.97l8.67,35.69h-8.66Zm-7.52-14.82h4.47l-2.24-10.35-2.24,10.35Z"/>
    </g>
    <g>
      <path class="cls-5" d="m73.77,58.04V22.35h10.69c4.64,0,8.12,1.78,10.43,5.33,2.31,3.56,3.46,7.67,3.46,12.34,0,5.33-1.24,9.67-3.71,13.01-2.48,3.34-5.69,5.01-9.65,5.01h-11.22Zm8.48-8.21h2.21c1.4,0,2.59-.88,3.55-2.64s1.45-4.16,1.45-7.19c0-2.6-.43-4.84-1.29-6.72s-2.1-2.82-3.71-2.82h-2.21v19.37Z"/>
      <path class="cls-5" d="m116.26,58.04l-1.56-7.03h-7.4l-1.66,7.03h-6.89l8.53-35.69h8.97l8.67,35.69h-8.66Zm-7.52-14.82h4.47l-2.24-10.35-2.24,10.35Z"/>
    </g>
    <g>
      <path class="cls-5" d="m279.57,49.28v8.76h-19.38V22.35h8.48v26.93h10.89Z"/>
      <path class="cls-5" d="m303.31,49.52v8.52h-20.79V22.35h20.79v8.24h-12.47v5.18h10.08v7.92h-10.08v5.83h12.47Z"/>
      <path class="cls-5" d="m315.16,22.35v35.69h-8.48V22.35h8.48Z"/>
      <path class="cls-5" d="m331.33,30.9v27.14h-8.04v-27.14h-5.73v-8.55h19.5v8.55h-5.73Z"/>
      <path class="cls-5" d="m360.26,49.52v8.52h-20.79V22.35h20.79v8.24h-12.47v5.18h10.08v7.92h-10.08v5.83h12.47Z"/>
    </g>
  </g>
  <text class="cls-4" transform="translate(122.31 84.97) scale(1.1 1)"><tspan x="0" y="0">ENTREPRISE DE PEINTURE</tspan></text>
  <line class="cls-2" x1="323.6" y1="80.89" x2="360.78" y2="80.89"/>
  <line class="cls-1" x1="74.48" y1="80.88" x2="111.66" y2="80.88"/>
  <path class="cls-3" d="m18.87,59.11h-7.87V25.67c8.2-7.21,16.39-14.43,24.59-21.64,7.87,7.21,15.74,14.43,23.6,21.64v21.64h-7.92v-18.63c-5.21-4.59-10.42-9.18-15.63-13.77-5.57,4.59-11.15,9.18-16.72,13.77-.02,10.14-.04,20.29-.05,30.43Z"/>
  <rect class="cls-3" x="22.8" y="52.23" width="36.39" height="6.88"/>
  <rect class="cls-5" x="28.7" y="31.57" width="5.9" height="5.9"/>
  <rect class="cls-5" x="36.57" y="31.57" width="5.9" height="5.9"/>
  <rect class="cls-5" x="36.57" y="39.44" width="5.9" height="5.9"/>
  <rect class="cls-5" x="28.7" y="39.44" width="5.9" height="5.9"/>
  <path d="m12.27,62.56c0,2.03.01,4.06.02,6.09l.04.13c.3.49.8,1.17,1.57,1.75,1.14.86,2.27,1.08,3.26,1.27,0,0,3.58.7,6.89,1.45,3.44.78,4.24,1.29,4.71,1.63.59.43,1.96,1.46,2.54,3.26.46,1.44.18,2.65-.36,4.89-.7,2.89-1.22,2.76-1.45,4.53-.09.67-.49,3.73,1.45,6.16.39.49,1.43,1.8,3.26,2.17,2,.41,3.6-.56,4.17-.91.23-.14,2.53-1.59,3.08-4.35.25-1.23.19-2.3-.33-4.5-.6-2.49-1.18-2.54-1.48-4.38-.27-1.64-.53-3.36.36-5.07.65-1.25,1.63-1.93,1.99-2.17.88-.6,1.47-.66,4.37-1.27,1.64-.34,3.26-.73,4.89-1.09,1.16-.25,2.29-.62,3.44-.91,1.22-.3,2.1-.5,2.7-1.27.09-.11.16-.23.22-.34.21-.39.32-.82.32-1.27v-5.82H12.27Zm23.46,29.81c-1.62.31-3.02-1.09-2.71-2.71.17-.9.91-1.64,1.81-1.81,1.62-.31,3.02,1.09,2.71,2.71-.17.9-.91,1.64-1.81,1.81Z"/>
</svg>