<?xml version="1.0" encoding="UTF-8"?>
<svg id="Calque_1" data-name="Calque 1" xmlns="http://www.w3.org/2000/svg" viewBox="0 0 512 512">
  <defs>
    <style>
      .cls-1 {
        fill: #fff;
      }

      .cls-2 {
        fill: #b23627;
      }

      .cls-3 {
        fill: #4a4d4a;
      }
    </style>
  </defs>
  <rect class="cls-3" x="4.96" y="16.8" width="502.41" height="478.4" rx="30" ry="30"/>
  <g>
    <g>
      <path class="cls-1" d="m394.09,393.59c-.13,14.2-9.78,23.85-23.98,23.85h-228.29c-13.53,0-23.45-9.65-23.45-23.18-.13-19.29,0-38.58,0-57.88s0-39.12-.13-58.82c0-2.81.8-4.96,2.95-6.97,43.41-41.4,86.82-82.93,130.22-124.33,3.48-3.22,6.16-3.22,9.65.13,43.41,41.4,86.82,82.93,130.22,124.46,1.47,1.47,2.68,4.29,2.68,6.56.13,38.72.13,77.44.13,116.16Z"/>
      <path class="cls-1" d="m313.65,140.47c0-7.8-.01-14.69,0-21.57.02-8.11,4.55-12.65,12.63-12.66,10.41-.01,20.83.4,31.21-.13,7.8-.4,13.92,4.85,13.77,13.91-.39,24.03-.09,48.07-.19,72.1,0,2.5.75,4.18,2.54,5.88,16.91,16.06,33.78,32.16,50.58,48.33,7.23,6.96,5.08,17.72-3.98,20.27-4.69,1.32-8.57-.25-12.04-3.59-20.36-19.54-40.8-39-61.2-58.5-28.27-27.01-56.54-54.03-84.82-81.04-4.89-4.67-6.91-4.69-11.73-.09-48.51,46.33-97.02,92.67-145.52,139.02-2.56,2.44-5.19,4.52-8.98,4.62-4.93.12-8.62-1.93-10.8-6.26-2.25-4.47-1.57-8.81,1.55-12.71.74-.93,1.62-1.75,2.49-2.58,50.2-48.03,100.4-96.06,150.6-144.09,9.39-8.98,23.22-9.14,32.64-.25,13.56,12.81,27,25.74,41.25,39.33Z"/>
    </g>
    <g>
      <rect class="cls-2" x="270.38" y="321.99" width="18.92" height="43.95" transform="translate(-66.66 620.65) rotate(-89.48)"/>
      <rect class="cls-2" x="248.65" y="295.65" width="18.92" height="43.95" transform="translate(-61.87 572.82) rotate(-89.48)"/>
      <rect class="cls-2" x="323.3" y="322.47" width="18.92" height="43.95" transform="translate(-14.71 674.05) rotate(-89.48)"/>
      <rect class="cls-2" x="297.11" y="296.09" width="18.92" height="43.95" transform="translate(-14.29 621.72) rotate(-89.48)"/>
      <rect class="cls-2" x="270.15" y="372.96" width="18.46" height="43.95" transform="translate(-118.09 670.69) rotate(-89.48)"/>
      <path class="cls-2" d="m381.46,287.71l-.14,15.51-21.85-.2.17-18.96,21.1.19c.49,1.2.73,2.39.72,3.45Z"/>
      <rect class="cls-2" x="296.64" y="347.63" width="18.92" height="43.95" transform="translate(-66.29 672.31) rotate(-89.48)"/>
      <rect class="cls-2" x="250.66" y="349.23" width="18.46" height="39.44" transform="translate(-111.42 625.46) rotate(-89.48)"/>
      <rect class="cls-2" x="349.37" y="348.11" width="18.92" height="43.95" transform="translate(-14.52 725.52) rotate(-89.48)"/>
      <rect class="cls-2" x="322.84" y="373.44" width="18.92" height="43.95" transform="translate(-66.14 724.08) rotate(-89.48)"/>
      <rect class="cls-2" x="349.85" y="296.58" width="18.92" height="43.95" transform="translate(37.48 674.93) rotate(-89.48)"/>
      <rect class="cls-2" x="323.77" y="271.32" width="18.92" height="43.95" transform="translate(36.9 623.83) rotate(-89.48)"/>
      <rect class="cls-2" x="270.85" y="270.56" width="18.92" height="43.95" transform="translate(-14.77 570.16) rotate(-89.48)"/>
      <rect class="cls-2" x="249.09" y="246.93" width="18.92" height="43.95" transform="translate(-12.71 524.99) rotate(-89.48)"/>
      <rect class="cls-2" x="299.67" y="245.48" width="18.92" height="47.79" transform="translate(36.94 576.02) rotate(-89.48)"/>
      <rect class="cls-2" x="271.3" y="222.04" width="18.92" height="43.95" transform="translate(34.18 522.54) rotate(-89.48)"/>
      <rect class="cls-2" x="249.54" y="197.6" width="18.92" height="43.95" transform="translate(37.07 476.56) rotate(-89.48)"/>
      <path class="cls-2" d="m355.55,253.93v.27s-43.94-.4-43.94-.4l.17-18.96,23.84.22c.25.27.5.4.74.67,6.44,6.02,12.75,12.05,19.18,18.2Z"/>
      <path class="cls-2" d="m381.66,278.83v.66s-43.95-.4-43.95-.4l.17-18.96,24.22.22c6.31,6.02,12.5,11.91,18.81,17.8.25.27.5.4.74.67Z"/>
      <path class="cls-2" d="m329.04,229.63l-43.32-.4.17-18.82,22.97.21c.62.54,1.36,1.21,1.98,1.87,6.06,5.76,12.13,11.38,18.19,17.14Z"/>
      <path class="cls-2" d="m303.07,204.14v1.06s-43.95-.4-43.95-.4l.17-18.96,24.84.23c.99.94,1.98,1.87,2.97,2.81,5.2,5.09,10.64,10.17,15.96,15.26Z"/>
      <path class="cls-2" d="m380.97,354.38l-21.97-.2.17-18.96,21.85.2c.07,6.36,0,12.59-.05,18.96Z"/>
      <path class="cls-2" d="m380.68,386.19l-.15,16.44c0,.8-.01,1.59-.27,2.38l-21.72-.2.17-18.82,21.97.2Z"/>
      <polygon class="cls-2" points="280.81 182.06 237.37 181.66 237.42 175.83 255.65 161.41 280.81 182.06"/>
    </g>
  </g>
</svg>