<?xml version="1.0" encoding="UTF-8"?>
<svg id="Calque_1" data-name="Calque 1" xmlns="http://www.w3.org/2000/svg" viewBox="0 0 512 512">
  <defs>
    <style>
      .cls-1 {
        fill: #fff;
      }

      .cls-2 {
        fill: #b23627;
      }

      .cls-3 {
        fill: #4a4d4a;
      }
    </style>
  </defs>
  <g>
    <rect class="cls-3" x="4.8" y="16.8" width="502.41" height="478.4" rx="30" ry="30"/>
    <g>
      <path class="cls-1" d="m393.93,393.59c-.13,14.2-9.78,23.85-23.98,23.85h-228.29c-13.53,0-23.45-9.65-23.45-23.18-.13-19.29,0-38.58,0-57.88s0-39.12-.13-58.82c0-2.81.8-4.96,2.95-6.97,43.41-41.4,86.82-82.93,130.22-124.33,3.48-3.22,6.16-3.22,9.65.13,43.41,41.4,86.82,82.93,130.22,124.46,1.47,1.47,2.68,4.29,2.68,6.56.13,38.72.13,77.44.13,116.16Z"/>
      <path class="cls-1" d="m313.49,140.47c0-7.8-.01-14.69,0-21.57.02-8.11,4.55-12.65,12.63-12.66,10.41-.01,20.83.4,31.21-.13,7.8-.4,13.92,4.85,13.77,13.91-.39,24.03-.09,48.07-.19,72.1,0,2.5.75,4.18,2.54,5.88,16.91,16.06,33.78,32.16,50.58,48.33,7.23,6.96,5.08,17.72-3.98,20.27-4.69,1.32-8.57-.25-12.04-3.59-20.36-19.54-40.8-39-61.2-58.5-28.27-27.01-56.54-54.03-84.82-81.04-4.89-4.67-6.91-4.69-11.73-.09-48.51,46.33-97.02,92.67-145.52,139.02-2.56,2.44-5.19,4.52-8.98,4.62-4.93.12-8.62-1.93-10.8-6.26-2.25-4.47-1.57-8.81,1.55-12.71.74-.93,1.62-1.75,2.49-2.58,50.2-48.03,100.4-96.06,150.6-144.09,9.39-8.98,23.22-9.14,32.64-.25,13.56,12.81,27,25.74,41.25,39.33Z"/>
    </g>
  </g>
  <rect class="cls-2" x="309.23" y="131.1" width="16" height="178.36" rx="1.16" ry="1.16" transform="translate(-62.11 292.8) rotate(-45.6)"/>
  <rect class="cls-2" x="128.54" y="395.31" width="254.93" height="16" rx=".45" ry=".45"/>
</svg>