<svg xmlns="http://www.w3.org/2000/svg" xmlns:xlink="http://www.w3.org/1999/xlink" id="Calque_1" data-name="Calque 1" viewBox="0 0 512 512" width="512" height="512"><metadata><rdf:RDF xmlns:rdf="http://www.w3.org/1999/02/22-rdf-syntax-ns#" xmlns:dc="http://purl.org/dc/elements/1.1/"><rdf:Description><dc:creator>RealFaviconGenerator</dc:creator><dc:source>https://realfavicongenerator.net</dc:source></rdf:Description></rdf:RDF></metadata><defs>
    <style>
      .cls-1 {
        fill: #fff;
      }

      .cls-2 {
        filter: url(#outer-glow-1);
      }

      .cls-3 {
        fill: #a0c171;
      }
    </style>
    <filter id="outer-glow-1" filterUnits="userSpaceOnUse">
      <feOffset dx="0" dy="0"></feOffset>
      <feGaussianBlur result="blur" stdDeviation="2"></feGaussianBlur>
      <feFlood flood-color="#000" flood-opacity=".46"></feFlood>
      <feComposite in2="blur" operator="in"></feComposite>
      <feComposite in="SourceGraphic"></feComposite>
    </filter>
  </defs><ellipse class="cls-3" cx="256" cy="256" rx="237.56" ry="234.34"></ellipse><g class="cls-2">
    <g>
      <path class="cls-1" d="m192.88,290.9h-30.61v-128.31c31.88-27.68,63.76-55.35,95.64-83.03,30.61,27.68,61.21,55.35,91.82,83.03v83.03h-30.82v-71.5c-20.26-17.61-40.52-35.22-60.79-52.83-21.68,17.61-43.36,35.22-65.04,52.84-.07,38.93-.14,77.85-.21,116.78Z"></path>
      <rect class="cls-1" x="208.18" y="264.48" width="141.55" height="26.42"></rect>
      <rect class="cls-1" x="231.13" y="185.23" width="22.95" height="22.64"></rect>
      <rect class="cls-1" x="261.74" y="185.23" width="22.95" height="22.64"></rect>
      <rect class="cls-1" x="261.74" y="215.42" width="22.95" height="22.64"></rect>
      <rect class="cls-1" x="231.13" y="215.42" width="22.95" height="22.64"></rect>
    </g>
    <path class="cls-1" d="m167.19,304.13c.03,7.79.05,15.57.08,23.36l.14.52c1.18,1.89,3.11,4.47,6.12,6.72,4.43,3.3,8.83,4.13,12.69,4.87,0,0,13.93,2.67,26.78,5.56,13.37,3.01,16.5,4.94,18.33,6.26,2.28,1.64,7.63,5.6,9.87,12.51,1.79,5.51.71,10.16-1.41,18.77-2.72,11.07-4.73,10.59-5.64,17.38-.34,2.56-1.91,14.3,5.64,23.64,1.53,1.89,5.58,6.89,12.69,8.34,7.8,1.59,14.02-2.16,16.21-3.48.89-.53,9.83-6.11,11.98-16.69.96-4.73.76-8.83-1.29-17.27-2.32-9.57-4.57-9.75-5.76-16.8-1.06-6.31-2.07-12.91,1.41-19.47,2.55-4.8,6.35-7.41,7.75-8.34,3.44-2.3,5.71-2.54,16.99-4.87,6.36-1.31,12.68-2.8,19.03-4.17,4.51-.98,8.91-2.38,13.39-3.48,4.76-1.16,8.15-1.91,10.49-4.87.34-.43.63-.87.87-1.3.83-1.48,1.24-3.16,1.24-4.86v-22.35h-177.61Zm91.27,114.37c-6.32,1.18-11.76-4.18-10.56-10.42.67-3.46,3.54-6.3,7.05-6.95,6.32-1.18,11.76,4.18,10.56,10.42-.67,3.46-3.54,6.3-7.05,6.95Z"></path>
  </g></svg>